<svg xmlns="http://www.w3.org/2000/svg" width="209" height="174" fill="none"><g clip-path="url(#a)"><path fill="#F5F5F5" d="M80.882 41.132H40.783v127.082h40.1V41.132Z"/><path fill="#EBEBEB" d="M80.878 41.132H60.83v126.734h20.048V41.132Z"/><path fill="#F5F5F5" d="M59.521 28.656h-14.16v12.476h14.16V28.656Z"/><path fill="#EBEBEB" d="M59.522 28.656h-3.375v12.476h3.375V28.656Z"/><path fill="#E0E0E0" d="M37.441 41.132v-.727h44.614v.727"/><path fill="#FAFAFA" d="M52.093 46.573H48.7v7.156h3.395v-7.156Z"/><path fill="#E0E0E0" d="M60.831 56.54c0 .076-4.488.137-10.024.137-5.536 0-10.024-.06-10.024-.136 0-.076 4.488-.137 10.024-.137 5.536 0 10.024.06 10.024.136Zm11.485-9.967h-3.394v7.156h3.394v-7.156Zm8.742 9.967c0 .076-4.488.137-10.024.137-5.536 0-10.024-.06-10.024-.136 0-.076 4.484-.137 10.024-.137 5.54 0 10.023.06 10.023.136Zm-8.742 4.242h-3.394v7.156h3.394v-7.156Zm8.742 9.964c0 .075-4.488.136-10.024.136-5.536 0-10.024-.06-10.024-.136 0-.076 4.484-.137 10.024-.137 5.54 0 10.023.065 10.023.137Zm-8.742 4.677h-3.394v7.155h3.394v-7.155Zm8.742 9.967c0 .071-4.488.136-10.024.136-5.536 0-10.024-.065-10.024-.136 0-.072 4.484-.14 10.024-.14 5.54 0 10.023.064 10.023.14Zm-8.742 4.67h-3.394v7.155h3.394v-7.156Zm8.742 9.966c0 .076-4.488.137-10.024.137-5.536 0-10.024-.061-10.024-.137 0-.075 4.484-.136 10.024-.136 5.54 0 10.023.06 10.023.136Zm-8.742 4.253h-3.394v7.156h3.394v-7.156Zm8.742 9.983c0 .075-4.488.136-10.024.136-5.536 0-10.024-.061-10.024-.136 0-.076 4.484-.137 10.024-.137 5.54 0 10.023.046 10.023.137Zm-8.742 4.295h-3.394v7.155h3.394v-7.155Zm0 14.462h-3.394v7.156h3.394v-7.156Zm8.742-4.495c0 .076-4.488.136-10.024.136-5.536 0-10.024-.06-10.024-.136 0-.076 4.484-.136 10.024-.136 5.54 0 10.023.06 10.023.136Z"/><path fill="#FAFAFA" d="M52.093 61.002H48.7v7.155h3.395v-7.155Z"/><path fill="#E0E0E0" d="M60.831 70.965c0 .075-4.488.14-10.024.14-5.536 0-10.024-.065-10.024-.14 0-.076 4.488-.136 10.024-.136 5.536 0 10.024.06 10.024.136Z"/><path fill="#FAFAFA" d="M52.093 75.426H48.7v7.156h3.395v-7.156Z"/><path fill="#E0E0E0" d="M60.831 85.394c0 .075-4.488.136-10.024.136-5.536 0-10.024-.06-10.024-.136 0-.076 4.488-.137 10.024-.137 5.536 0 10.024.06 10.024.136Z"/><path fill="#FAFAFA" d="M52.093 89.855H48.7v7.156h3.395v-7.156Z"/><path fill="#E0E0E0" d="M60.831 99.818c0 .076-4.488.136-10.024.136-5.536 0-10.024-.06-10.024-.136 0-.076 4.488-.136 10.024-.136 5.536 0 10.024.06 10.024.136Z"/><path fill="#FAFAFA" d="M52.093 104.279H48.7v7.156h3.395v-7.156Z"/><path fill="#E0E0E0" d="M60.831 114.262c0 .075-4.488.136-10.024.136-5.536 0-10.024-.061-10.024-.136 0-.076 4.488-.137 10.024-.137 5.536 0 10.024.046 10.024.137Z"/><path fill="#FAFAFA" d="M52.093 118.704H48.7v7.156h3.395v-7.156Z"/><path fill="#E0E0E0" d="M60.831 128.671c0 .076-4.488.137-10.024.137-5.536 0-10.024-.061-10.024-.137 0-.075 4.488-.136 10.024-.136 5.536 0 10.024.061 10.024.136Z"/><path fill="#FAFAFA" d="M52.093 133.132H48.7v7.156h3.395v-7.156Z"/><path fill="#EBEBEB" d="M69.848 167.9H23.51l-.204-73.24h46.343l.2 73.24Z"/><path fill="#E0E0E0" d="M69.648 94.66h-23.17v73.24h23.17V94.66Z"/><path fill="#EBEBEB" d="M44.964 80.244H28.598V94.66h16.366V80.244Z"/><path fill="#E0E0E0" d="M44.966 80.244h-3.901V94.66h3.9V80.244Z"/><path fill="#E0E0E0" d="M71.003 93.82H19.445v.84h51.558v-.84Z"/><path fill="#fff" d="M36.38 100.949h-3.925v8.272h3.924v-8.272Z"/><path fill="#E0E0E0" d="M46.478 112.468c0 .087-5.188.159-11.587.159-6.398 0-11.586-.072-11.586-.159 0-.087 5.188-.159 11.586-.159 6.4 0 11.587.061 11.587.159Z"/><path fill="#F5F5F5" d="M59.75 100.949h-3.924v8.272h3.924v-8.272Z"/><path fill="#EBEBEB" d="M69.85 112.468c0 .087-5.189.159-11.584.159s-11.586-.072-11.586-.159c0-.087 5.188-.159 11.586-.159 6.4 0 11.583.061 11.583.159Z"/><path fill="#F5F5F5" d="M59.75 117.373h-3.924v8.271h3.924v-8.271Z"/><path fill="#EBEBEB" d="M69.85 128.887c0 .091-5.189.159-11.584.159s-11.586-.068-11.586-.159 5.188-.155 11.586-.155c6.4 0 11.583.068 11.583.155Z"/><path fill="#F5F5F5" d="M59.75 134.287h-3.924v8.271h3.924v-8.271Z"/><path fill="#EBEBEB" d="M69.85 145.805c0 .087-5.189.159-11.584.159s-11.586-.072-11.586-.159c0-.087 5.188-.159 11.586-.159 6.4 0 11.583.072 11.583.159Z"/><path fill="#F5F5F5" d="M59.75 151.205h-3.924v8.272h3.924v-8.272Z"/><path fill="#EBEBEB" d="M69.85 162.724c0 .087-5.189.155-11.584.155s-11.586-.068-11.586-.155 5.188-.159 11.586-.159c6.4 0 11.583.072 11.583.159Z"/><path fill="#fff" d="M36.38 117.622h-3.925v8.272h3.924v-8.272Z"/><path fill="#E0E0E0" d="M46.478 129.141c0 .087-5.188.155-11.587.155-6.398 0-11.586-.068-11.586-.155s5.188-.159 11.586-.159c6.4 0 11.587.072 11.587.159Z"/><path fill="#fff" d="M36.38 134.294h-3.925v8.272h3.924v-8.272Z"/><path fill="#E0E0E0" d="M46.478 145.813c0 .087-5.188.155-11.587.155-6.398 0-11.586-.068-11.586-.155s5.188-.144 11.586-.144c6.4 0 11.587.057 11.587.144Z"/><path fill="#fff" d="M36.38 150.967h-3.925v8.272h3.924v-8.272Z"/><path fill="#E0E0E0" d="M46.478 162.482c0 .091-5.188.159-11.587.159-6.398 0-11.586-.068-11.586-.159s5.188-.163 11.586-.163c6.4 0 11.587.076 11.587.163Z"/><path fill="#EBEBEB" d="M158.462 107.322h-45.976v60.639h45.976v-60.639Z"/><path fill="#E0E0E0" d="M158.46 107.322h-21.558v60.639h21.558v-60.639Z"/><path fill="#F5F5F5" d="M126.257 115.53h-4.132v10.043h4.132V115.53Zm0 39.308h-4.132v10.043h4.132v-10.043Zm10.644-25.323c0 .114-5.464.205-12.207.205-6.744 0-12.208-.091-12.208-.205 0-.113 5.464-.204 12.208-.204 6.743 0 12.207.087 12.207.204Zm-10.644 5.82h-4.132v10.043h4.132v-10.043Zm10.644 13.982c0 .114-5.464.204-12.207.204-6.744 0-12.208-.09-12.208-.204 0-.113 5.464-.204 12.208-.204 6.743 0 12.207.094 12.207.204Zm8.712-33.787h-4.133v10.043h4.133V115.53Zm8.966 0h-4.132v10.043h4.132V115.53Zm-8.966 19.059h-4.133v10.043h4.133v-10.043Zm8.966 0h-4.132v10.043h4.132v-10.043Zm-8.966 19.057h-4.133v10.043h4.133v-10.043Zm8.966 0h-4.132v10.043h4.132v-10.043Z"/><path fill="#E0E0E0" d="M161.915 105.21h-52.886v2.187h52.886v-2.187Z"/><path fill="#EBEBEB" d="M158.779 107.602c0 .113-10.277.204-22.95.204s-22.95-.091-22.95-.204c0-.114 10.274-.205 22.95-.205s22.95.091 22.95.205Zm-.718-88.504c.223-1.62-2.062-2.952-3.784-3.088-.817-.068-1.669.057-2.444-.212-1.681-.587-2.35-2.759-3.989-3.447-1.226-.519-2.649-.057-3.825.54-1.177.599-2.362 1.352-3.69 1.435-1.154.076-2.41-.352-3.405.212-.757.42-1.136 1.287-1.84 1.797-.703.511-1.566.606-2.406.655-.84.05-1.714.053-2.482.405-.769.352-1.401 1.162-1.242 1.99l29.107-.287Z"/><path fill="#F5F5F5" d="M190.59 37.855c.337-2.433-3.099-4.435-5.676-4.643-1.23-.102-2.509.087-3.674-.318-2.524-.882-3.535-4.162-5.998-5.184-1.843-.757-3.966-.083-5.752.813-1.786.897-3.549 2.032-5.543 2.157-1.737.114-3.622-.53-5.143.318-1.135.632-1.721 1.934-2.766 2.706-1.044.772-2.354.912-3.617.98-1.264.068-2.577.083-3.731.61-1.155.525-2.104 1.747-1.866 2.992l43.766-.431ZM46.562 14.678c.17-1.238-1.574-2.252-2.887-2.358-.625-.053-1.276.046-1.866-.162-1.283-.447-1.797-2.108-3.05-2.65-.938-.397-2.013-.045-2.921.413-.908.458-1.794 1.037-2.823 1.113-.882.056-1.839-.273-2.61.159-.576.321-.879.983-1.409 1.377-.552.34-1.19.513-1.839.5a5.232 5.232 0 0 0-1.892.306c-.586.269-1.07.89-.95 1.514l22.247-.212Z"/><path fill="#263238" d="M188.119 168.177c0 .056-36.796.098-82.178.098s-82.185-.042-82.185-.098c0-.057 36.788-.099 82.185-.099 45.397 0 82.178.046 82.178.099Z"/><path fill="#263238" d="m124.665 168.176-54.592-.031a11.892 11.892 0 0 1-11.885-11.881l.026-136.86a11.89 11.89 0 0 1 11.9-11.89l54.593.03a11.888 11.888 0 0 1 11.885 11.878l-.026 136.864a11.892 11.892 0 0 1-11.901 11.89Z"/><path fill="#fff" d="M125.099 12.353h-10.595a2.627 2.627 0 0 0-2.569 2.683v1.922a2.624 2.624 0 0 1-1.572 2.463 2.622 2.622 0 0 1-1.001.22h-20.63a2.649 2.649 0 0 1-2.57-2.686v-1.938a2.648 2.648 0 0 0-2.57-2.686H70.617a8.325 8.325 0 0 0-8.325 8.324l-.026 133.576a8.325 8.325 0 0 0 8.325 8.325l54.489.031a8.327 8.327 0 0 0 8.325-8.325l.027-133.576a8.332 8.332 0 0 0-2.439-5.894 8.322 8.322 0 0 0-5.894-2.438Z"/><path fill="#263238" d="M125.1 12.353h.288c.282 0 .565.021.844.065a7.8 7.8 0 0 1 3.122 1.078 8.048 8.048 0 0 1 1.892 1.54 8.374 8.374 0 0 1 1.585 2.486 8.613 8.613 0 0 1 .624 3.383v3.924c0 11.099 0 27.154.027 46.99.026 19.836 0 43.463 0 69.694v12.488a8.889 8.889 0 0 1-.318 2.539 8.41 8.41 0 0 1-1.063 2.346 8.97 8.97 0 0 1-1.737 1.926 8.404 8.404 0 0 1-4.783 1.884c-1.745.049-3.478 0-5.233.023H71.216a8.78 8.78 0 0 1-5.426-1.514 8.5 8.5 0 0 1-3.3-4.563 9.113 9.113 0 0 1-.348-2.815V76.928c0-13.12 0-25.58.019-37.247V20.795c0-.336.03-.673.049-1.01.019-.337.083-.67.17-.991a8.45 8.45 0 0 1 8.54-6.558h12.465a2.649 2.649 0 0 1 1.639.458c.47.328.828.795 1.021 1.336.158.533.215 1.091.167 1.646v.81c-.009.265 0 .53.026.794a2.65 2.65 0 0 0 .621 1.396c.336.4.79.683 1.298.806.247.06.502.086.757.076h3.784l10.973.019h5.979a2.412 2.412 0 0 0 1.018-.379 2.654 2.654 0 0 0 1.169-1.676c.058-.333.079-.672.065-1.01v-.984a5.41 5.41 0 0 1 .045-.969 2.79 2.79 0 0 1 .314-.893 2.618 2.618 0 0 1 1.328-1.177 4.108 4.108 0 0 1 1.654-.174 4.039 4.039 0 0 0-1.623.178 2.534 2.534 0 0 0-1.287 1.135c-.149.27-.251.563-.303.867-.04.317-.054.638-.041.957v1c.017.344-.004.69-.065 1.029a2.746 2.746 0 0 1-1.203 1.74 2.61 2.61 0 0 1-1.059.379c-.379.034-.757 0-1.136 0H88.914a2.9 2.9 0 0 1-.784-.076 2.604 2.604 0 0 1-1.347-.832 2.79 2.79 0 0 1-.658-1.469 6.519 6.519 0 0 1-.027-.813v-.716a4.308 4.308 0 0 0-.162-1.593 2.626 2.626 0 0 0-.961-1.252 2.517 2.517 0 0 0-1.556-.428H70.955a8.272 8.272 0 0 0-6.637 2.94 8.367 8.367 0 0 0-1.715 3.455c-.083.318-.105.647-.162.973-.057.325-.042.658-.046.991v133.031c-.031.93.084 1.858.34 2.751a8.256 8.256 0 0 0 3.21 4.431 8.527 8.527 0 0 0 5.297 1.457h49.121c1.748 0 3.5.027 5.222-.022a8.193 8.193 0 0 0 4.681-1.817 8.717 8.717 0 0 0 1.687-1.873c.46-.699.81-1.465 1.037-2.27a8.721 8.721 0 0 0 .314-2.479v-12.483c0-26.231.027-49.855.038-69.694.011-19.84.038-35.892.049-46.99v-3.924a8.547 8.547 0 0 0-.605-3.357 8.31 8.31 0 0 0-1.567-2.475 8.325 8.325 0 0 0-5.824-2.724l-.295.011Z"/><path fill="#263238" d="M126.712 25.843c0 .038-1.378.076-3.077.091s-3.073 0-3.073-.042c0-.041 1.374-.075 3.073-.087 1.699-.01 3.077.004 3.077.038Zm.011 1.575c0 .034-1.373.075-3.072.09s-3.077 0-3.077-.041c0-.042 1.378-.076 3.077-.091s3.072.004 3.072.041Zm.032 1.574c0 .034-1.378.075-3.077.087-1.699.011-3.073 0-3.073-.038s1.374-.076 3.073-.091c1.699-.015 3.077.004 3.077.042Zm-55.97 1.793h.484l1.31-.03-.034.034V29.29a.507.507 0 0 1 .442-.404h.629a.51.51 0 0 1 .427.506v1.39l-.06-.061h1.657l-.064.064v-2.592a.536.536 0 0 0-.231-.378l-.723-.716-.7-.688-.34-.333a.757.757 0 0 0-.341-.258.442.442 0 0 0-.378.072c-.103.087-.209.208-.31.307l-.595.598c-.378.378-.757.756-1.044 1.078a1.135 1.135 0 0 0-.083.617v2.342a1.197 1.197 0 0 1 0-.197c0-.162 0-.355-.02-.594-.018-.238 0-.586 0-.946v-.923c0-.121.033-.24.095-.344.307-.379.67-.708 1.048-1.109l.59-.605c.107-.103.194-.209.319-.314a.556.556 0 0 1 .48-.095.863.863 0 0 1 .397.284l.341.333.7.685.727.715c.068.06.13.128.185.2a.541.541 0 0 1 .087.277v2.656h-1.778v-1.45a.406.406 0 0 0-.337-.4h-.602a.397.397 0 0 0-.356.321v1.518H70.99a.549.549 0 0 1-.205-.06Zm23.693 3.875c0 .44-.349.693-1.015.693H92.15v-2.536h1.238c.635 0 .96.265.96.659a.61.61 0 0 1-.336.56.624.624 0 0 1 .466.624Zm-1.745-1.4v.598h.583c.287 0 .443-.102.443-.303 0-.2-.156-.295-.443-.295h-.583Zm1.135 1.34c0-.212-.162-.314-.469-.314h-.685v.628h.685c.326 0 .488-.095.488-.314h-.019Zm.869-.22a1.075 1.075 0 1 1 1.074 1.003 1.008 1.008 0 0 1-1.074-1.003Zm1.57 0a.5.5 0 1 0-.996.076.5.5 0 0 0 .996-.076Zm.807 0a1.075 1.075 0 1 1 1.07 1.003 1.002 1.002 0 0 1-1.07-1.003Zm1.57 0a.5.5 0 1 0-.996.075.5.5 0 0 0 .996-.075Zm1.787.208-.272.269v.496h-.564v-2.69h.564v1.513l.828-.784h.674l-.814.825.886 1.136h-.685l-.617-.765Zm1.47-1.771a.318.318 0 0 1 .03-.128.319.319 0 0 1 .191-.173.328.328 0 0 1 .131-.017.32.32 0 0 1 .352.307.352.352 0 1 1-.704 0v.011Zm.069.587h.567v1.949h-.567v-1.95Zm3.088.833v1.135h-.568v-1.03c0-.313-.144-.457-.378-.457-.235 0-.481.155-.481.507v.961h-.567v-1.949h.541v.227a.845.845 0 0 1 .643-.257.757.757 0 0 1 .81.863Zm2.546-.833v1.623c0 .727-.378 1.06-1.097 1.06-.34.013-.675-.08-.958-.269l.227-.405c.201.144.442.22.689.22.378 0 .571-.182.571-.534v-.083a.79.79 0 0 1-.616.242.945.945 0 1 1 0-1.892.784.784 0 0 1 .647.28v-.25l.537.008Zm-.568.912a.516.516 0 0 0-.293-.5.516.516 0 1 0-.217.98.471.471 0 0 0 .51-.48Z"/><path fill="#407BFF" d="M91.804 67.926H70.318a.965.965 0 0 0-.965.965v19.196c0 .533.433.965.965.965h21.486a.965.965 0 0 0 .965-.965V68.891a.965.965 0 0 0-.965-.965Z"/><path fill="#263238" d="M99.694 69.935v2.085h-.484v-.855h-.946v.855h-.48v-2.085h.48v.81h.946v-.821l.484.011Zm.345 1.283a.882.882 0 1 1 .882.825.829.829 0 0 1-.814-.496.83.83 0 0 1-.068-.33Zm1.287 0a.412.412 0 0 0-.509-.362.405.405 0 0 0-.302.33.407.407 0 0 0 .406.474.405.405 0 0 0 .387-.275.43.43 0 0 0 .018-.167Zm1.816.722a.636.636 0 0 1-.378.103.525.525 0 0 1-.598-.575v-.659h-.25v-.355h.242v-.379h.466v.379h.397v.355h-.397v.655a.181.181 0 0 0 .115.2.326.326 0 0 0 .271-.048l.132.325Zm1.774-.59h-1.214a.427.427 0 0 0 .458.322.564.564 0 0 0 .404-.155l.246.268a.938.938 0 0 1-1.578-.567.82.82 0 0 1 .856-.825.795.795 0 0 1 .836.832c0 .034-.008.084-.008.125Zm-1.222-.272h.791a.4.4 0 0 0-.395-.334.4.4 0 0 0-.396.334Zm1.54-1.268h.466v2.21h-.466v-2.21Z"/><path fill="#407BFF" d="m108.088 70.302.174.348.382.057-.276.273.064.382-.344-.182-.345.182.068-.382-.28-.273.386-.057.171-.348Zm1.498 0 .17.348.386.057-.276.273.064.382-.344-.182-.345.182.068-.382-.28-.273.386-.057.171-.348Zm1.5 0 .174.348.382.057-.276.273.064.382-.344-.182-.345.182.068-.382-.28-.273.386-.057.171-.348Zm1.498 0 .174.348.382.057-.276.273.064.382-.344-.182-.345.182.068-.382-.28-.273.386-.057.171-.348Zm1.498 0 .174.348.382.057-.276.273.064.382-.344-.182-.345.182.068-.382-.28-.273.386-.057.171-.348Z"/><path fill="#E0E0E0" d="M114.373 74.109c0 .056-3.629.098-8.106.098-4.476 0-8.105-.042-8.105-.098 0-.057 3.629-.099 8.105-.099 4.477 0 8.106.046 8.106.099Z"/><path fill="#263238" d="M127.133 76.86c0 .053-6.565.098-14.655.098-8.091 0-14.66-.045-14.66-.098 0-.053 6.562-.099 14.66-.099 8.097 0 14.655.038 14.655.099Zm-14.627 2.815c0 .053-3.224.098-7.189.098-3.966 0-7.19-.045-7.19-.098 0-.053 3.22-.098 7.19-.098 3.969 0 7.189.041 7.189.098Z"/><path fill="#407BFF" d="M112.382 82.683H99.827a2.274 2.274 0 0 0-2.274 2.274v.893a2.274 2.274 0 0 0 2.274 2.275h12.555a2.275 2.275 0 0 0 2.275-2.275v-.893a2.275 2.275 0 0 0-2.275-2.274Z"/><path fill="#fff" d="M104.754 85.635c0 .261-.2.412-.59.412h-.734v-1.54h.692c.352 0 .553.152.553.401a.381.381 0 0 1-.208.341.38.38 0 0 1 .287.386Zm-1.105-.946v.492h.454c.224 0 .352-.083.352-.246 0-.163-.128-.246-.352-.246h-.454Zm.882.927c0-.178-.129-.257-.379-.257h-.507v.522h.507c.25 0 .379-.087.379-.265Zm.422-.152a.609.609 0 1 1 .61.598.583.583 0 0 1-.568-.363.59.59 0 0 1-.042-.235Zm.999 0a.393.393 0 0 0-.391-.391.39.39 0 0 0-.277.668.391.391 0 0 0 .668-.277Zm.402.001a.606.606 0 1 1 .605.597.577.577 0 0 1-.605-.597Zm.995 0a.39.39 0 0 0-.392-.392.393.393 0 0 0 0 .783.39.39 0 0 0 .392-.391Zm.963.037-.243.224v.317h-.212v-1.63h.212v1.048l.636-.583h.265l-.488.484.537.681h-.261l-.446-.54Zm-24.246-.212a2.06 2.06 0 0 1 0-.238v-.666c0-.594 0-1.434-.023-2.49 0-2.134-.026-5.135-.045-8.665l.09.087h-8.131c-.023 0 .186-.186.098-.099v12.056l-.079-.08 5.903.043h2.078a.758.758 0 0 1 .155 0 .909.909 0 0 1-.14 0h-2.044l-5.952.041H75.9V73.227c-.087.087.121-.121.102-.098h8.223v.09l-.045 8.727c0 1.044-.02 1.892-.027 2.467v.65a1.474 1.474 0 0 1-.087.227Z"/><path fill="#fff" d="M82.482 71.627c.07.532.1 1.068.09 1.604v.087h-1.165l-.098-.102v-1.684h.08a5.86 5.86 0 0 1 1.074.08 8.05 8.05 0 0 1-1.075.08l.08-.08v1.612c.087.09-.122-.118-.099-.095h1.075l-.091.09a13.7 13.7 0 0 1 .129-1.592Zm4.623 13.728a1.036 1.036 0 0 1-.193 0h-2.917v-.057c-.023-2.713-.038-7.106-.038-12.06v-.098h3.235v.099c0 3.458-.03 6.497-.041 8.703 0 1.063-.023 1.922-.03 2.535v.674a1.72 1.72 0 0 1 0 .227 2.313 2.313 0 0 1 0-.25v-.696c0-.617 0-1.484-.027-2.558 0-2.176-.026-5.188-.045-8.62l.098.094H84.12l.098-.098c0 4.953 0 9.346-.041 12.06l-.057-.061 2.221.08.602.026a1.46 1.46 0 0 1 .162 0ZM78.489 74.74h-1.26V76h1.26v-1.26Zm2.142 0h-1.26V76h1.26v-1.26Zm2.137 0h-1.26V76h1.26v-1.26Zm-4.279 2.17h-1.26v1.26h1.26v-1.26Zm2.142 0h-1.26v1.26h1.26v-1.26Zm2.137 0h-1.26v1.26h1.26v-1.26Zm-4.279 2.167h-1.26v1.26h1.26v-1.26Zm2.142 0h-1.26v1.26h1.26v-1.26Zm2.137 0h-1.26v1.26h1.26v-1.26Zm-4.279 2.169h-1.26v1.26h1.26v-1.26Zm2.142 0h-1.26v1.26h1.26v-1.26Zm2.137 0h-1.26v1.26h1.26v-1.26Z"/><path fill="#fff" d="M86.11 74.74h-1.26V76h1.26v-1.26Zm0 2.17h-1.26v1.26h1.26v-1.26Zm0 2.167h-1.26v1.26h1.26v-1.26Zm0 2.169h-1.26v1.26h1.26v-1.26Zm-5.363 2.092h-1.233v1.952h1.233v-1.952Z"/><path fill="#fff" d="M89.803 85.29c0 .053-3.913.099-8.742.099-4.828 0-8.737-.046-8.737-.099 0-.053 3.913-.098 8.737-.098 4.825 0 8.742.045 8.742.098Z"/><path fill="#407BFF" d="M128.591 91.98c.156-.007.311-.03.462-.067.443-.113.83-.382 1.09-.757.189-.277.299-.6.318-.935v-4.268c0-4.59 0-11.228-.034-19.428a2.412 2.412 0 0 0-.069-.756 1.818 1.818 0 0 0-1.672-1.332H67.744a1.808 1.808 0 0 0-1.699 1.2 3.027 3.027 0 0 0-.106 1.135v23.445a1.82 1.82 0 0 0 1.135 1.54c.156.06.319.1.485.118h5.676l28.811.022 19.412.038 5.298.02-5.298.018-19.427.03-28.811.02h-5.684a2.184 2.184 0 0 1-.537-.13 2.002 2.002 0 0 1-1.249-1.698V66.147a2.006 2.006 0 0 1 2.01-1.93h60.948a1.977 1.977 0 0 1 1.43.723c.175.21.304.455.378.719.063.256.087.52.072.783 0 8.2-.022 14.838-.03 19.428v4.272a1.893 1.893 0 0 1-1.797 1.767l-.171.072ZM91.11 99.16H69.626a.965.965 0 0 0-.965.964v19.196c0 .533.432.965.965.965h21.486a.965.965 0 0 0 .965-.965v-19.196a.965.965 0 0 0-.965-.965Z"/><path fill="#263238" d="M99.003 101.168v2.085h-.485v-.855h-.946v.855h-.484v-2.085h.484v.822h.946v-.822h.485Zm.339 1.283a.88.88 0 1 1 .881.825.82.82 0 0 1-.62-.221.822.822 0 0 1-.261-.604Zm1.29 0a.411.411 0 0 0-.274-.352.41.41 0 0 0-.536.318.407.407 0 0 0 .401.477.408.408 0 0 0 .42-.443h-.011Zm1.817.723a.658.658 0 0 1-.379.102.539.539 0 0 1-.44-.142.528.528 0 0 1-.161-.433v-.659h-.246v-.355h.246v-.379h.465v.379h.401v.355h-.401v.655a.189.189 0 0 0 .201.212.34.34 0 0 0 .189-.061l.125.326Zm1.77-.59h-1.211a.428.428 0 0 0 .458.321.554.554 0 0 0 .401-.155l.25.269a.838.838 0 0 1-.662.257.831.831 0 0 1-.666-1.422.815.815 0 0 1 .605-.228.781.781 0 0 1 .602.231.781.781 0 0 1 .231.602c0 .034-.004.072-.008.125Zm-1.218-.273h.791a.404.404 0 0 0-.396-.334.403.403 0 0 0-.395.334Zm1.538-1.268h.466v2.21h-.466v-2.21Z"/><path fill="#407BFF" d="m107.396 101.535.17.348.386.057-.28.272.068.383-.344-.182-.344.182.064-.383-.276-.272.382-.057.174-.348Zm1.498 0 .17.348.386.057-.28.272.068.383-.344-.182-.344.182.064-.383-.276-.272.382-.057.174-.348Zm1.498 0 .17.348.386.057-.28.272.069.383-.345-.182-.344.182.064-.383-.276-.272.382-.057.174-.348Z"/><path fill="#E0E0E0" d="m111.89 101.535.171.348.385.057-.28.272.069.383-.345-.182-.344.182.064-.383-.276-.272.382-.057.174-.348Zm1.498 0 .171.348.386.057-.28.272.068.383-.345-.182-.344.182.064-.383-.276-.272.382-.057.174-.348Zm.288 3.807c0 .057-3.629.098-8.102.098-4.473 0-8.105-.041-8.105-.098s3.629-.098 8.105-.098c4.477 0 8.102.045 8.102.098Z"/><path fill="#263238" d="M126.444 108.093c0 .053-6.562.098-14.656.098-8.094 0-14.655-.045-14.655-.098 0-.053 6.561-.098 14.655-.098s14.656.041 14.656.098Zm-14.633 2.815c0 .053-3.22.098-7.19.098-3.969 0-7.19-.045-7.19-.098 0-.053 3.221-.098 7.19-.098 3.97 0 7.19.045 7.19.098Z"/><path fill="#407BFF" d="M111.686 119.354s.147 0 .412-.057c.389-.08.75-.26 1.049-.522a2.215 2.215 0 0 0 .756-1.638v-1.177a2.268 2.268 0 0 0-.499-1.173 2.224 2.224 0 0 0-1.181-.73 2.75 2.75 0 0 0-.757-.061H99.149a2.19 2.19 0 0 0-2.138 1.76c-.04.328-.054.66-.041.991-.02.322.013.646.098.957a2.189 2.189 0 0 0 2.063 1.541l6.542.022 4.412.03 1.2.019h.416a.376.376 0 0 1-.106 0h-1.51l-4.412.034-6.546.019a2.372 2.372 0 0 1-2.24-1.665 3.08 3.08 0 0 1-.11-1.014c-.015-.343 0-.688.045-1.029a2.378 2.378 0 0 1 2.327-1.918h12.317c.266-.011.532.013.791.071.493.122.934.399 1.257.791.287.357.466.79.514 1.245.023.435 0 .818 0 1.192a2.297 2.297 0 0 1-.821 1.695 2.22 2.22 0 0 1-1.4.53.36.36 0 0 1-.121.087Z"/><path fill="#407BFF" d="M104.049 116.864c0 .265-.201.416-.59.416h-.734v-1.54h.688c.356 0 .553.152.553.379a.38.38 0 0 1-.205.344.382.382 0 0 1 .219.147.384.384 0 0 1 .069.254Zm-1.105-.946v.496h.45c.224 0 .352-.087.352-.25s-.128-.246-.352-.246h-.45Zm.882.931c0-.178-.133-.257-.379-.257h-.507v.51h.507c.258 0 .39-.075.39-.253h-.011Zm.436-.151a.601.601 0 0 1 .368-.564.608.608 0 0 1 .662.124.608.608 0 0 1-.421 1.038.571.571 0 0 1-.436-.165.588.588 0 0 1-.173-.433Zm.999 0a.391.391 0 0 0-.393-.394.394.394 0 1 0 .393.394Zm.398 0a.599.599 0 0 1 .367-.564.608.608 0 0 1 .662.124.61.61 0 0 1 .137.66.603.603 0 0 1-.557.378.576.576 0 0 1-.568-.363.575.575 0 0 1-.041-.235Zm.999 0a.393.393 0 0 0-.784 0 .39.39 0 0 0 .392.392.395.395 0 0 0 .392-.392Zm.956.041-.242.224v.325h-.208v-1.631h.208v1.045l.636-.579h.257l-.492.48.541.685h-.261l-.439-.549Z"/><path fill="#fff" d="M83.37 116.531v-.904c0-.594 0-1.434-.026-2.49 0-2.134-.026-5.135-.041-8.669l.087.091h-8.132l.098-.095v12.056l-.08-.079 5.9.041 1.646.019h.435a.639.639 0 0 1 .151 0 .774.774 0 0 1-.136 0h-.42l-1.627.023-5.948.041h-.08v-12.09c-.087.088.121-.121.099-.102h8.222v.087l-.045 8.726c0 1.048 0 1.892-.023 2.471v.651c-.02.077-.047.151-.08.223Z"/><path fill="#fff" d="M81.776 102.86c.068.531.098 1.065.091 1.6v.091h-1.169l-.098-.098v-1.695h.075c.361-.006.722.02 1.079.079a8.28 8.28 0 0 1-1.079.08l.08-.08v1.612l-.099-.098h1.079l-.091.087a13.58 13.58 0 0 1 .132-1.578Zm4.632 13.728a1.554 1.554 0 0 1-.193 0h-2.914v-.057c-.022-2.713-.041-7.11-.041-12.063v-.098h3.235v.094c0 3.463-.034 6.497-.045 8.703 0 1.064-.02 1.923-.027 2.536v.673c.01.076.01.152 0 .227a2.298 2.298 0 0 1 0-.249v-.697c0-.62 0-1.483-.026-2.558 0-2.175-.027-5.188-.046-8.623l.095.098h-3.027l.098-.098c0 4.953 0 9.35-.038 12.063l-.056-.06 2.22.079.602.026c.055-.001.109 0 .163.004Zm-8.611-10.614h-1.26v1.26h1.26v-1.26Zm2.137 0h-1.26v1.26h1.26v-1.26Zm2.142 0h-1.26v1.26h1.26v-1.26Zm-4.279 2.168h-1.26v1.26h1.26v-1.26Zm2.137 0h-1.26v1.26h1.26v-1.26Zm2.142 0h-1.26v1.26h1.26v-1.26Zm-4.279 2.169h-1.26v1.26h1.26v-1.26Zm2.137 0h-1.26v1.26h1.26v-1.26Zm2.142 0h-1.26v1.26h1.26v-1.26Zm-4.279 2.168h-1.26v1.26h1.26v-1.26Zm2.137 0h-1.26v1.26h1.26v-1.26Zm2.142 0h-1.26v1.26h1.26v-1.26Z"/><path fill="#fff" d="M85.414 105.974h-1.26v1.26h1.26v-1.26Zm0 2.168h-1.26v1.26h1.26v-1.26Zm0 2.169h-1.26v1.26h1.26v-1.26Zm0 2.168h-1.26v1.26h1.26v-1.26Zm-5.36 2.092H78.82v1.953h1.234v-1.953Z"/><path fill="#fff" d="M89.11 116.531c0 .053-3.917.099-8.742.099-4.825 0-8.741-.046-8.741-.099 0-.052 3.913-.098 8.741-.098 4.829 0 8.741.034 8.741.098Z"/><path fill="#407BFF" d="M91.4 130.184H69.914a.965.965 0 0 0-.965.965v19.196c0 .533.432.965.965.965H91.4a.965.965 0 0 0 .965-.965v-19.196a.965.965 0 0 0-.965-.965Z"/><path fill="#263238" d="M99.29 132.193v2.085h-.485v-.855h-.946v.855h-.484v-2.085h.484v.821h.946v-.821h.485Zm.34 1.283a.881.881 0 1 1 .882.829.836.836 0 0 1-.62-.223.837.837 0 0 1-.261-.606Zm1.291 0a.407.407 0 0 0-.509-.358.41.41 0 1 0 .491.527.403.403 0 0 0 .018-.169Zm1.817.726a.658.658 0 0 1-.379.102.525.525 0 0 1-.568-.343.523.523 0 0 1-.03-.235v-.655h-.249v-.36h.268v-.378h.462v.378h.401v.36h-.401v.651a.192.192 0 0 0 .05.153.199.199 0 0 0 .151.059.34.34 0 0 0 .189-.061l.106.329Zm1.768-.594h-1.214a.423.423 0 0 0 .457.322.553.553 0 0 0 .217-.035.552.552 0 0 0 .185-.12l.249.269a.86.86 0 0 1-.662.261.832.832 0 0 1-.843-.492.825.825 0 0 1 .175-.931.82.82 0 0 1 .6-.231.805.805 0 0 1 .603.23.784.784 0 0 1 .233.603c.012.034.004.075 0 .124Zm-1.218-.272h.791a.404.404 0 0 0-.396-.334.403.403 0 0 0-.395.334Zm1.542-1.268h.462v2.21h-.462v-2.21Z"/><path fill="#407BFF" d="m107.681 132.564.171.349.386.053-.281.272.069.382-.345-.181-.344.181.068-.382-.28-.272.382-.053.174-.349Zm1.5 0 .171.349.386.053-.281.272.069.382-.345-.181-.344.181.064-.382-.276-.272.386-.053.17-.349Z"/><path fill="#E0E0E0" d="m110.679 132.564.171.349.386.053-.28.272.068.382-.345-.181-.344.181.068-.382-.28-.272.386-.053.17-.349Zm1.498 0 .171.349.386.053-.28.272.068.382-.345-.181-.344.181.068-.382-.28-.272.386-.053.17-.349Zm1.5 0 .171.349.386.053-.277.272.065.382-.345-.181-.344.181.068-.382-.28-.272.386-.053.17-.349Zm.29 3.807c0 .053-3.629.099-8.106.099-4.476 0-8.105-.046-8.105-.099 0-.053 3.629-.102 8.105-.102 4.477 0 8.106.045 8.106.102Z"/><path fill="#263238" d="M126.754 139.118c0 .053-6.565.099-14.659.099-8.094 0-14.656-.046-14.656-.099 0-.053 6.562-.098 14.656-.098 8.094 0 14.659.045 14.659.098Zm-14.654 2.816c0 .053-3.22.098-7.19.098-3.969 0-7.19-.045-7.19-.098 0-.053 3.221-.099 7.19-.099 3.97 0 7.19.05 7.19.099Z"/><path fill="#407BFF" d="M111.996 150.383s.144 0 .412-.06a2.266 2.266 0 0 0 1.596-1.262c.13-.282.2-.588.206-.899 0-.378 0-.757-.019-1.177a2.198 2.198 0 0 0-1.68-1.892 3.053 3.053 0 0 0-.757-.06H99.437a2.182 2.182 0 0 0-2.138 1.759 5.41 5.41 0 0 0-.042.995c-.023.323.01.646.095.958.095.297.25.572.458.806a2.16 2.16 0 0 0 1.604.73l6.543.023 4.412.034h1.619a.625.625 0 0 1-.106 0h-.314l-1.199.019-4.412.03-6.547.019a2.359 2.359 0 0 1-1.74-.787 2.4 2.4 0 0 1-.5-.874 3.003 3.003 0 0 1-.106-1.014 5.634 5.634 0 0 1 .042-1.033 2.383 2.383 0 0 1 2.33-1.919h12.319c.265-.01.531.014.791.072a2.333 2.333 0 0 1 1.767 2.04c.022.431 0 .817 0 1.192a2.313 2.313 0 0 1-.821 1.691 2.236 2.236 0 0 1-1.4.53.449.449 0 0 1-.095.079Z"/><path fill="#407BFF" d="M104.35 147.893c0 .261-.201.413-.591.413h-.734v-1.54h.693c.352 0 .549.151.549.401a.355.355 0 0 1-.205.34.376.376 0 0 1 .213.142c.053.07.079.157.075.244Zm-1.105-.946v.492h.45c.227 0 .352-.083.352-.246 0-.162-.125-.246-.352-.246h-.45Zm.882.927c0-.178-.133-.257-.379-.257h-.507v.511h.507c.246 0 .379-.076.379-.254Zm.424-.151a.612.612 0 0 1 .368-.571.61.61 0 1 1 .241 1.169.571.571 0 0 1-.436-.165.588.588 0 0 1-.173-.433Zm.999 0a.378.378 0 1 0-.378.413.39.39 0 0 0 .158-.027.387.387 0 0 0 .216-.227.39.39 0 0 0 .019-.159h-.015Zm.392 0a.607.607 0 0 1 1.036-.446.61.61 0 0 1-.427 1.044.571.571 0 0 1-.436-.165.588.588 0 0 1-.173-.433Zm.999 0a.395.395 0 0 0-.392-.392.395.395 0 0 0-.392.392.393.393 0 0 0 .784 0Zm.964.041-.242.224v.329h-.208v-1.631h.212v1.048l.636-.583h.253l-.492.485.526.681h-.261l-.424-.553Z"/><path fill="#fff" d="M83.662 147.56a2.01 2.01 0 0 1 0-.238v-.666c0-.594 0-1.434-.023-2.49 0-2.134-.026-5.135-.045-8.665l.09.09h-8.131c-.027.019.185-.185.094-.098v12.056l-.08-.079 5.904.041 1.642.019h.59a.547.547 0 0 1-.14 0h-.42l-1.623.019-5.952.042h-.076v-12.087c-.087.087.121-.121.102-.098h8.222v.091c0 3.557-.03 6.576-.04 8.726 0 1.044-.02 1.892-.027 2.467v.651a1.257 1.257 0 0 1-.087.219Z"/><path fill="#fff" d="M82.066 133.885c.07.532.1 1.068.09 1.605v.087h-1.165l-.098-.099v-1.691h.079c.36-.006.72.021 1.075.079a8.22 8.22 0 0 1-1.075.08l.076-.08v1.612l-.099-.098h1.075l-.09.091c.013-.531.057-1.06.132-1.586Zm4.634 13.728a1.036 1.036 0 0 1-.193 0h-2.891v-.053c-.023-2.713-.038-7.106-.038-12.059v-.099h3.232v.099c0 3.458-.03 6.497-.042 8.703 0 1.067-.023 1.922-.03 2.535v.678a1.66 1.66 0 0 1 0 .223v-.946c0-.617 0-1.483-.027-2.558 0-2.176-.026-5.188-.045-8.62l.098.094h-3.027l.098-.098c0 4.953 0 9.347-.041 12.06l-.057-.057 2.15.045.601.027.212.026Zm-8.616-10.614h-1.26v1.26h1.26v-1.26Zm2.139 0h-1.26v1.26h1.26v-1.26Zm2.141 0h-1.26v1.26h1.26v-1.26Zm-4.28 2.168h-1.26v1.261h1.26v-1.261Zm2.139 0h-1.26v1.261h1.26v-1.261Zm2.141 0h-1.26v1.261h1.26v-1.261Zm-4.28 2.168h-1.26v1.261h1.26v-1.261Zm2.139 0h-1.26v1.261h1.26v-1.261Zm2.141 0h-1.26v1.261h1.26v-1.261Zm-4.28 2.168h-1.26v1.26h1.26v-1.26Zm2.139 0h-1.26v1.26h1.26v-1.26Zm2.141 0h-1.26v1.26h1.26v-1.26Z"/><path fill="#fff" d="M85.703 136.999h-1.26v1.26h1.26v-1.26Zm0 2.168h-1.26v1.261h1.26v-1.261Zm0 2.168h-1.26v1.261h1.26v-1.261Zm0 2.168h-1.26v1.26h1.26v-1.26Zm-5.36 2.094h-1.234v1.952h1.234v-1.952Z"/><path fill="#fff" d="M89.398 147.56c0 .053-3.912.099-8.74.099-4.83 0-8.742-.046-8.742-.099 0-.053 3.913-.098 8.741-.098 4.829 0 8.741.034 8.741.098Z"/><path fill="#EBEBEB" d="M73.656 39.935h48.129a2.685 2.685 0 0 1 2.682 2.683v2.694A2.686 2.686 0 0 1 121.781 48H73.655a2.682 2.682 0 0 1-2.682-2.683v-2.694a2.683 2.683 0 0 1 2.683-2.687Z"/><path fill="#263238" d="M120.322 43.44s0-.099-.06-.265a1.105 1.105 0 0 0-.549-.673 1.096 1.096 0 0 0-.867-.058 1.071 1.071 0 0 0-.63.624 1.073 1.073 0 0 0 .062.884 1.055 1.055 0 0 0 .71.53 1.06 1.06 0 0 0 .865-.191c.199-.144.343-.35.409-.587.049-.166.049-.265.06-.265.011 0 0 .023 0 .072a.739.739 0 0 1-.019.205 1.106 1.106 0 0 1-.401.647 1.164 1.164 0 0 1-1.877-.924 1.166 1.166 0 0 1 1.877-.923c.205.16.347.389.401.643a.767.767 0 0 1 .019.209c.023.045.019.071 0 .071Z"/><path fill="#263238" d="M120.95 45.361a2.153 2.153 0 0 1-.545-.495 2.14 2.14 0 0 1-.454-.587c.21.135.395.304.549.5.181.168.333.365.45.582ZM76.086 43.56h-.492v-.178h1.188v.178h-.492v1.26h-.204v-1.26Zm.678.715a.567.567 0 1 1 .568.56.542.542 0 0 1-.568-.56Zm.935 0a.379.379 0 1 0-.379.379.36.36 0 0 0 .379-.379Zm.377-.397a.135.135 0 0 1 .085-.13.138.138 0 0 1 .055-.01.135.135 0 0 1 .098.04.13.13 0 0 1 .038.1.136.136 0 0 1-.136.14.14.14 0 0 1-.14-.14Zm0 .83a.136.136 0 0 1 .085-.131.138.138 0 0 1 .055-.01.135.135 0 0 1 .098.04.13.13 0 0 1 .038.1.134.134 0 0 1-.037.101.135.135 0 0 1-.1.043.14.14 0 0 1-.135-.1.14.14 0 0 1-.004-.06v.016Zm31.744-.387c0 .053-6.134.098-13.698.098s-13.698-.045-13.698-.098c0-.053 6.134-.098 13.698-.098s13.698.034 13.698.098Z"/><path fill="#EBEBEB" d="M121.784 50.773H73.652a2.683 2.683 0 0 0-2.683 2.682v2.698a2.683 2.683 0 0 0 2.683 2.683h48.132a2.683 2.683 0 0 0 2.683-2.683v-2.698a2.683 2.683 0 0 0-2.683-2.682Z"/><path fill="#263238" d="M120.322 54.651s0-.098-.06-.264a1.112 1.112 0 0 0-.409-.587 1.064 1.064 0 1 0 0 1.703c.197-.143.341-.348.409-.583.049-.166.049-.269.06-.269.011 0 0 .027 0 .072a.767.767 0 0 1-.019.209 1.11 1.11 0 0 1-.401.643 1.155 1.155 0 0 1-1.101.181 1.167 1.167 0 0 1-.781-1.103 1.169 1.169 0 0 1 .781-1.103 1.154 1.154 0 0 1 1.143.167c.206.16.348.388.401.643a.739.739 0 0 1 .019.204c-.019.065-.023.087-.042.087Z"/><path fill="#263238" d="M120.95 56.577a2.329 2.329 0 0 1-.545-.5 2.217 2.217 0 0 1-.454-.582c.21.135.395.303.549.5.181.168.333.365.45.582Zm-45.151-2.762h.628a.724.724 0 1 1 0 1.438h-.61l-.018-1.438Zm.594 1.26a.54.54 0 1 0 0-1.082h-.379v1.082h.379Zm1.926-.48v.658h-.19v-.144a.401.401 0 0 1-.355.156c-.246 0-.405-.133-.405-.322 0-.19.114-.318.44-.318h.313v-.038c0-.166-.098-.265-.295-.265a.549.549 0 0 0-.344.118l-.084-.148a.726.726 0 0 1 .45-.14c.315 0 .47.144.47.443Zm-.197.325v-.151h-.306c-.193 0-.25.076-.25.166 0 .091.09.178.242.178a.318.318 0 0 0 .33-.193h-.016Zm1.188.269a.352.352 0 0 1-.24.075.31.31 0 0 1-.344-.34v-.598h-.185v-.163h.185v-.238h.197v.238h.314v.163h-.314v.59a.16.16 0 0 0 .17.182.26.26 0 0 0 .156-.05l.06.14Zm1.184-.416h-.885a.379.379 0 0 0 .378.321.424.424 0 0 0 .318-.132l.106.125a.533.533 0 0 1-.427.178.546.546 0 0 1-.587-.557.532.532 0 0 1 .549-.556.525.525 0 0 1 .537.564s.011.038.011.057Zm-.885-.14h.7a.34.34 0 0 0-.348-.314.345.345 0 0 0-.352.314Zm1.071-.341a.14.14 0 0 1 .14-.14.144.144 0 0 1 0 .284.141.141 0 0 1-.13-.09.14.14 0 0 1-.01-.054Zm0 .832a.137.137 0 0 1 .086-.13.137.137 0 0 1 .054-.01.133.133 0 0 1 .132.14.136.136 0 0 1-.132.14.14.14 0 0 1-.14-.14Zm7.004-.348a8.14 8.14 0 0 1-1.805.098 8.219 8.219 0 0 1-1.809-.098 8.504 8.504 0 0 1 1.81-.098 8.482 8.482 0 0 1 1.804.098Zm13.808.027c0 .056-2.6.098-5.808.098-3.21 0-5.805-.042-5.805-.099 0-.056 2.6-.098 5.805-.098 3.205 0 5.808.045 5.808.099Z"/><path fill="#455A64" d="M179.497 69.52h-4.045l-6.145 17.637 9.376 13.887c2.907.609 6.301 1.101 8.522-.867 1.828-1.62 2.142-4.325 2.236-6.77.154-3.93.07-7.866-.253-11.786-.242-2.944-.659-5.983-2.229-8.488s-4.582-4.318-7.462-3.614Z"/><path fill="#263238" d="M183.39 101.309c.113-.017.226-.04.337-.068.312-.094.595-.268.821-.503a2.78 2.78 0 0 0 .708-1.347c.133-.676.212-1.36.238-2.048.286-3.989.367-7.99.242-11.987a60.04 60.04 0 0 0-.496-6.577 20.365 20.365 0 0 0-1.411-5.173 14.177 14.177 0 0 0-1.828-3.118 17.724 17.724 0 0 0-.639-.757l-.17-.193a.371.371 0 0 1-.057-.068s.026 0 .072.057l.185.178c.163.159.378.4.666.73a13.595 13.595 0 0 1 1.892 3.11 20.224 20.224 0 0 1 1.453 5.207c.299 2.187.471 4.39.515 6.596.13 4.005.029 8.014-.303 12.007-.03.695-.12 1.386-.269 2.066-.118.52-.38.996-.756 1.373a1.9 1.9 0 0 1-.863.485c-.11.028-.224.038-.337.03Z"/><path fill="#263238" d="M189.567 90.313a3.117 3.117 0 0 1-1.76.631 3.15 3.15 0 0 1-1.85-.29 9.71 9.71 0 0 0 1.831.094c.605-.093 1.2-.238 1.779-.436Zm-.247-8.731a3.93 3.93 0 0 1-1.782.697 3.848 3.848 0 0 1-1.915-.046c0-.06.859.038 1.892-.147 1.033-.186 1.779-.56 1.805-.504Zm-9.448-12.139s-.503-1.983.428-2.1c.931-.117 3.629 1.07 3.216 2.13a8.431 8.431 0 0 1-.923 1.749l-.379-.515s.644-.795.568-1.34c-.076-.544-1.865-1.48-2.138-.934a2.567 2.567 0 0 0-.272 1.04l-.5-.03Z"/><path fill="#FFBE9D" d="m146.47 71.94-16.169.315-2.615-.227s-5.914-.167-6.482-.254c-.655-.102-.863.19-.882.432-.034.378.379.719.946.825.193.034 3.266.484 3.266.484a7.54 7.54 0 0 0-.92.466c-.643.378-1.135 1.38-1.271 2.478-.136 1.097-.076 1.419.348 1.49a.552.552 0 0 0 .447-.15c.217-.222.362-.505.416-.81.359-2.093 1.192-1.957 1.192-1.957h.378s-.946.984-.757 1.892c.026.136.08.265.159.379a1.382 1.382 0 0 0 .493 1.292 1.387 1.387 0 0 0 1.365.222c.22-.084.439-.265.428-.5a.682.682 0 0 0-.14-.337 1.598 1.598 0 0 1-.091-.174l.969-.053s2.172-.23 3.129-.223l15.193.503c2.161.227 4.503-.23 4.692-2.395.189-2.392-1.729-3.826-4.094-3.697Z"/><path fill="#FFBE9D" d="M130.012 72.728a.808.808 0 0 1-.56.756c-.311.133-.659.152-.977.258-.957.317-1.551 1.358-2.523 1.63-.133.038-.315.042-.379-.083s.023-.25.102-.352l2.047-2.648"/><path fill="#EB996E" d="M127.724 72.296a1.357 1.357 0 0 0-.254.261c-.151.178-.378.44-.624.757l-.912 1.136-.261.332a.65.65 0 0 0-.208.455.28.28 0 0 0 .216.23c.09.021.185.021.276 0 .157-.046.309-.108.454-.185.502-.332.978-.7 1.426-1.101.199-.16.421-.287.659-.379.219-.079.446-.113.651-.17a1.185 1.185 0 0 0 .825-.556.44.44 0 0 0 .041-.378.985.985 0 0 1-.11.329 1.134 1.134 0 0 1-.79.465 6.61 6.61 0 0 0-.67.148 2.57 2.57 0 0 0-.708.378c-.45.385-.921.743-1.411 1.075-.132.069-.27.125-.413.166-.136.034-.261 0-.261-.064s.08-.204.167-.318l.257-.333.878-1.17c.246-.332.446-.605.579-.798.074-.086.139-.18.193-.28Zm-2.615 2.729a1.301 1.301 0 0 0-.62.11c-.203.104-.368.27-.469.473a2.708 2.708 0 0 0-.246.81 4.418 4.418 0 0 1-.212.855 1.371 1.371 0 0 1-.42.594.555.555 0 0 1-.481.102c-.113-.034-.163-.08-.159-.083.004-.004.061 0 .17.038a.53.53 0 0 0 .417-.125 1.39 1.39 0 0 0 .378-.568 4.71 4.71 0 0 0 .197-.836 2.67 2.67 0 0 1 .269-.844c.117-.22.305-.395.533-.496a.975.975 0 0 1 .484-.075c.103.011.163.038.159.045Zm-4.033-2.04c.206.01.409.04.609.087l1.465.243 1.468.219c.205.02.409.056.609.106-.205.02-.413.014-.617-.019a23.085 23.085 0 0 1-2.94-.465 2.853 2.853 0 0 1-.594-.17Zm4.62 2.838a.83.83 0 0 1-.098.167.579.579 0 0 0-.095.469.308.308 0 0 0 .231.197c.132.027.267.039.401.033a.692.692 0 0 1 .469.148.597.597 0 0 1 .171.503.677.677 0 0 1-.284.447.816.816 0 0 1-.462.163 2.67 2.67 0 0 1-.783-.137 1.583 1.583 0 0 1-.481-.23.439.439 0 0 1-.128-.148s.053.042.155.106c.151.085.312.148.48.19.247.068.501.103.757.105a.66.66 0 0 0 .625-.51.478.478 0 0 0-.129-.402.586.586 0 0 0-.378-.121c-.144 0-.288-.016-.428-.05a.405.405 0 0 1-.284-.268.593.593 0 0 1 .14-.522c.064-.098.114-.144.121-.14Z"/><path fill="#EB996E" d="M126.406 77.723a.258.258 0 0 1 .171.046.538.538 0 0 1 .257.404.715.715 0 0 1-.31.64 1.193 1.193 0 0 1-.855.174 1.418 1.418 0 0 1-.776-.378 1.365 1.365 0 0 1-.356-.613 1.322 1.322 0 0 1-.038-.477c0-.11.038-.17.046-.167-.006.208.02.416.075.617.069.213.19.406.352.56.199.185.448.306.716.348.261.044.53-.008.756-.147a.637.637 0 0 0 .288-.537.516.516 0 0 0-.197-.38c-.072-.067-.132-.079-.129-.09Zm2.378-1.793s-.018-.114.05-.292a1.13 1.13 0 0 1 .484-.58v.107a3.123 3.123 0 0 1-.401-.129 2.652 2.652 0 0 1-1.181-.832 6.48 6.48 0 0 0 1.226.715c.124.05.25.095.379.132l.132.042-.121.068a1.215 1.215 0 0 0-.477.507c-.056.155-.075.265-.091.261Zm-5.23-.75c.019-.027.22.125.295.412.076.288-.026.519-.056.504-.031-.016 0-.224-.065-.474-.064-.25-.2-.42-.174-.442Z"/><path fill="#407BFF" d="M158.673 61.727c-.25.353-11.299 9.101-12.669 9.46-1.37.36-14.001.553-14.001.553s-.987 7.769-.662 8.298c1.2 1.938 15.628 7.065 22.511.121l4.817-17.61"/><path fill="#263238" d="M144.805 75.94a1.939 1.939 0 0 1-.136-.68 6.211 6.211 0 0 1 .628-3.27c.091-.215.219-.413.379-.583a14.074 14.074 0 0 0-.723 2.21c-.112.77-.162 1.546-.148 2.323Zm1.199.303a2.546 2.546 0 0 1-.155-.756 16.2 16.2 0 0 1-.076-3.637 2.47 2.47 0 0 1 .129-.757c.056 0-.027 1.135 0 2.562.026 1.427.147 2.58.102 2.588Z"/><path fill="#000" d="M145.615 71.422a6.193 6.193 0 0 0-1.801 6.6c.121.355.329.756.696.813a.817.817 0 0 0 .821-.473 2.39 2.39 0 0 0 .189-.991l.284-6.055" opacity=".3"/><path fill="#263238" d="m158.757 63.124.291-1.861-2.349 2.07-1.17 4.056 3.228-4.265Z"/><path fill="#407BFF" d="m161.29 59.34-1.65.927-5.298 8.911.023 4.666s-1.249 3.266-1.324 5.884c-.076 2.619 0 12.208 0 12.208l-6.725 44.454 5.733 1.851 11.352-51.762V58.636l-2.111.704Z"/><path fill="#000" d="m152.051 138.241-4.541-1.465 6.486-48.223s-1.086-7.069 0-10.164c1.086-3.096 2.754-7.644 2.754-7.644l-1.892 8.635c.239 6.467-.159 14.187-.851 22.504h1.733l-3.689 36.357Z" opacity=".3"/><path fill="#263238" d="M157.426 63.987a1.32 1.32 0 0 1-.136.234c-.087.156-.238.379-.409.663-.483.82-.908 1.674-1.271 2.554a26.883 26.883 0 0 0-1.283 4.034 43.669 43.669 0 0 0-.851 5.12 61.98 61.98 0 0 0-.379 5.183 113.716 113.716 0 0 0-.038 4.246c.012 1.219 0 2.168 0 2.868v.78c.007.09.007.18 0 .269a1.211 1.211 0 0 1-.022-.269c0-.197 0-.458-.027-.78-.019-.7-.045-1.672-.075-2.864a74.194 74.194 0 0 1 0-4.257 63.6 63.6 0 0 1 .378-5.195c.184-1.73.475-3.448.87-5.143a25.556 25.556 0 0 1 1.332-4.045c.377-.882.823-1.733 1.336-2.543.178-.284.341-.496.443-.643a1.28 1.28 0 0 1 .132-.212Z"/><path fill="#000" d="M150.418 82.476a27.206 27.206 0 0 1 2.88-7.568 39.66 39.66 0 0 1-.314 5.097 1.957 1.957 0 0 1-.333 1.025 2.028 2.028 0 0 1-.613.454l-1.737.965" opacity=".3"/><path fill="#263238" d="M174.328 46.247a4.861 4.861 0 0 1 2.115-2.346 3.339 3.339 0 0 1 3.092-.034 2.55 2.55 0 0 1 1.279 2.71 3.503 3.503 0 0 1 1.76 2.016 3.492 3.492 0 0 1-2.196 4.43 3.501 3.501 0 0 1-2.671-.18c.882 1.165.129 3.069-1.252 3.538-1.381.47-2.99-.344-3.678-1.631-.689-1.287-.564-2.895.045-4.223"/><path fill="#407BFF" d="M173.708 46.989a1.553 1.553 0 0 1 1.199-.942 1.25 1.25 0 0 1 1.287.757 1.054 1.054 0 0 1-.557 1.324 1.464 1.464 0 0 1-.571 2.8 1.358 1.358 0 0 1-.289 1.697 1.353 1.353 0 0 1-1.72.044 1.822 1.822 0 0 1-.625-1.241 5.476 5.476 0 0 1 .091-1.423c.11-.712.216-1.427.326-2.138a2.3 2.3 0 0 1 .268-.905.8.8 0 0 1 .795-.405"/><path fill="#263238" d="M156.414 41.139c-.511-.916-.193-2.146.568-2.872a4.044 4.044 0 0 1 2.91-.97 11.85 11.85 0 0 1 3.076.64 3.356 3.356 0 0 1 4.922-.42c.458.42.789.958.959 1.556a2.125 2.125 0 0 1 2.856 2.452l-4.446 2.236-3.939 9.577a4.105 4.105 0 0 1-6.675-4.635 3.425 3.425 0 0 1-.829-.79 3.581 3.581 0 0 1-1.929-1.995 3.781 3.781 0 0 1 2.527-4.78Z"/><path fill="#FFBE9D" d="M161.898 59.393c.102-1.495.174-2.52.174-2.509 0 .012-2.883-.715-3.19-4.578-.151-1.923.193-5.022.553-7.568.325-2.27 2.062-4.965 4.325-4.541l6.978 2.361c.685.129.881.734.813 1.426l.03.334-1.195 10.913-.473 4.862a4.028 4.028 0 0 1-4.064 3.602 4.026 4.026 0 0 1-3.733-2.694 4.028 4.028 0 0 1-.218-1.608Z"/><path fill="#263238" d="M160.162 47.773a.498.498 0 0 0 .435.533.47.47 0 0 0 .537-.401.493.493 0 0 0-.431-.534.472.472 0 0 0-.541.401Zm-.089-.947c.053.068.447-.178.973-.132.526.045.893.337.953.276.061-.06-.023-.148-.181-.284a1.347 1.347 0 0 0-1.537-.113c-.174.11-.231.223-.208.253Zm4.866 1.332a.494.494 0 0 0 .435.53.47.47 0 0 0 .538-.401.49.49 0 0 0-.432-.53.466.466 0 0 0-.48.225.463.463 0 0 0-.061.176Zm.166-1.033c.057.068.451-.178.977-.136.526.042.889.337.953.276.065-.06-.022-.144-.181-.28a1.362 1.362 0 0 0-.757-.303 1.293 1.293 0 0 0-.784.19c-.17.11-.234.22-.208.253Zm-2.179 3.565a3.358 3.358 0 0 0-.84-.223c-.136-.027-.261-.061-.276-.156a.72.72 0 0 1 .121-.378l.481-.995c.666-1.412 1.161-2.577 1.104-2.604-.056-.026-.647 1.098-1.313 2.51l-.461.998a.78.78 0 0 0-.114.522.342.342 0 0 0 .208.216.802.802 0 0 0 .224.05c.285.054.576.074.866.06Z"/><path fill="#EB996E" d="M162.072 56.9a9.747 9.747 0 0 0 5.214-.958s-1.514 2.588-5.298 1.93l.084-.973Z"/><path fill="#263238" d="M165.216 45.695c.053.144.579.072 1.199.144.621.072 1.135.235 1.204.106.037-.06-.053-.197-.254-.333a1.965 1.965 0 0 0-.893-.307 2.045 2.045 0 0 0-.938.114c-.227.095-.341.208-.318.276Zm-5.043.098c.099.129.538.038 1.056.076s.946.155 1.056.038c.049-.057 0-.182-.193-.31a1.643 1.643 0 0 0-.84-.266 1.606 1.606 0 0 0-.859.174c-.193.11-.265.227-.22.288Zm8.629-5.468a2.622 2.622 0 0 1-2.138 2.386c-.378.07-.767.055-1.139-.043-.575-.152-1.192-.496-1.718-.224-.526.273-.64 1.083-1.135 1.457-.719.53-1.745-.098-2.619.087-.673.148-1.135.757-1.612 1.242-.477.484-1.173.95-1.82.703a8.053 8.053 0 0 1 .397-1.74 2.617 2.617 0 0 1 1.109-1.355c.288-.159.613-.242.882-.428.583-.397.757-1.157 1.135-1.748a2.876 2.876 0 0 1 2.289-1.279c.757-.019 1.514.265 2.271.14.548-.094 1.048-.412 1.604-.473 1.082-.12 2.017.723 2.732 1.544"/><path fill="#263238" d="M165.273 41.582c.488-.099 1.491-.333 1.778-.73a2.94 2.94 0 0 1 2.649-1.265 2.423 2.423 0 0 1 2.024 2.074 3.484 3.484 0 0 1 2.835 2.15 4.041 4.041 0 0 1-.379 3.73 7.25 7.25 0 0 0-.469.878c.271.26.517.545.734.852 1.011 1.642-1.04 2.584-1.04 2.584.143 1.173-.939 1.306-1.631 1.393-.693.087-.84 1.983-1.389 1.979l-.185-5.778a.759.759 0 0 1-.25.079c-1.302.19-1.279-2.327-.939-3.027a7.412 7.412 0 0 1-1.18-1.453 5.37 5.37 0 0 1-.379-2.65c-.476.027-2.395-.771-2.179-.816Z"/><path fill="#FFBE9D" d="M170.04 49.793a1.134 1.134 0 0 1 1.703-.825c.378.254.628.727.529 1.586-.272 2.289-2.516 1.543-2.512 1.48.004-.065.162-1.295.28-2.24Z"/><path fill="#EB996E" d="M170.563 51.25s.038.03.099.068a.41.41 0 0 0 .299.041.987.987 0 0 0 .563-.828 1.354 1.354 0 0 0-.045-.587.463.463 0 0 0-.265-.34.2.2 0 0 0-.246.08c-.042.06-.03.109-.042.109-.011 0-.045-.042 0-.136a.24.24 0 0 1 .106-.133.307.307 0 0 1 .227-.03.561.561 0 0 1 .379.405c.074.21.096.434.064.654a1.053 1.053 0 0 1-.7.92.434.434 0 0 1-.359-.106c-.084-.064-.087-.117-.08-.117Z"/><path fill="#455A64" d="M157.738 48.222s-.22-.128-.545-.439a3.319 3.319 0 0 1-.969-2.928 2.79 2.79 0 0 1 .632-1.329 3.254 3.254 0 0 1 3.088-1.021c.106.022.211.051.314.087.102.034.197.08.292.117l.147.06-.019-.15a1.133 1.133 0 0 1 .186-.758c.15-.22.348-.403.579-.537a2.356 2.356 0 0 1 1.468-.299c.976.095 1.839.424 2.614.413a2.437 2.437 0 0 0 1.673-.564c.12-.108.22-.236.295-.379a.748.748 0 0 0 .057-.159 1.922 1.922 0 0 1-.378.496 2.44 2.44 0 0 1-1.631.496 6.113 6.113 0 0 1-1.2-.186c-.461-.122-.93-.212-1.404-.268a3.063 3.063 0 0 0-.787.023c-.274.05-.538.147-.779.287a1.947 1.947 0 0 0-.64.59 1.3 1.3 0 0 0-.216.882l.129-.095-.31-.128a3.391 3.391 0 0 0-.333-.091 3.426 3.426 0 0 0-3.258 1.09 2.93 2.93 0 0 0-.651 1.411c-.072.45-.05.91.064 1.351.156.639.501 1.216.992 1.654.131.12.276.223.431.31a.997.997 0 0 0 .159.064Zm-.549-7.852c.208-.146.438-.26.682-.336.28-.075.573-.087.859-.034.368.064.705.249.957.526l.098.11.034-.144a2.614 2.614 0 0 1 1.892-1.831 3.408 3.408 0 0 1 2.097.321 8.906 8.906 0 0 0 1.706.624c.405.102.829.102 1.234 0 .108-.03.212-.074.31-.128.065-.038.099-.06.095-.068-.004-.008-.148.068-.424.128a2.616 2.616 0 0 1-1.184-.041 9.858 9.858 0 0 1-1.673-.651 5.44 5.44 0 0 0-1.025-.348 2.65 2.65 0 0 0-1.177 0 2.735 2.735 0 0 0-1.998 1.975l.132-.034a1.782 1.782 0 0 0-1.048-.545 1.893 1.893 0 0 0-.908.072c-.186.06-.36.153-.511.276a.611.611 0 0 0-.148.129Z"/><path fill="#407BFF" d="M163.254 51.825a.761.761 0 0 1 .587-.257.898.898 0 0 1 .632.352l.022.026a.43.43 0 0 1 .099.25.629.629 0 0 1-.303.514.803.803 0 0 1-.919 0 .657.657 0 0 1-.118-.885Z"/><path fill="#263238" d="M164.617 51.382c-.031 0-.076.114-.19.273a1.232 1.232 0 0 1-1.313.507c-.189-.042-.306-.099-.321-.072-.016.026.075.125.28.212a1.163 1.163 0 0 0 1.479-.575c.095-.2.091-.34.065-.345Zm8.838-6.315a.643.643 0 0 0 .098-.076c.092-.078.178-.163.258-.253a2.65 2.65 0 0 0 .62-1.177 2.09 2.09 0 0 0 0-.931 1.924 1.924 0 0 0-.511-.935 1.515 1.515 0 0 0-1.089-.442 1.427 1.427 0 0 0-1.136.537l.106.057v-.027a3.155 3.155 0 0 0-.064-2.399 2.079 2.079 0 0 0-1.544-1.184 1.72 1.72 0 0 0-1.275.378 1.426 1.426 0 0 0-.246.269.378.378 0 0 0-.061.113 1.99 1.99 0 0 1 .337-.344 1.674 1.674 0 0 1 1.234-.31 1.994 1.994 0 0 1 1.457 1.135c.315.735.331 1.565.045 2.312v.026l-.117.352.223-.299a1.297 1.297 0 0 1 1.041-.488 1.418 1.418 0 0 1 1.01.401c.245.241.416.547.492.882a1.95 1.95 0 0 1 0 .886c-.094.427-.29.826-.572 1.161-.181.235-.317.348-.306.356Zm3.797 7.515.065.026.185.068c.163.057.405.14.723.239.385.12.776.22 1.173.295a5.452 5.452 0 0 0 1.601.072 3.69 3.69 0 0 0 1.808-.685 2.865 2.865 0 0 0 1.083-1.907 4.42 4.42 0 0 0-.379-2.426 3.024 3.024 0 0 0-.757-1.06 1.93 1.93 0 0 0-1.264-.476 1.51 1.51 0 0 0-.927.299l.084.09c.291-.323.498-.713.605-1.135.099-.4.116-.818.049-1.226a2.73 2.73 0 0 0-1.233-1.892 3.21 3.21 0 0 0-2.006-.5 3.098 3.098 0 0 0-1.669.64c-.39.31-.712.696-.946 1.136a3.832 3.832 0 0 0-.378 1.048 3.32 3.32 0 0 0-.061.696v.242a4.544 4.544 0 0 1 .087-.93 3.78 3.78 0 0 1 .379-1.026c.231-.428.549-.802.935-1.098a3.057 3.057 0 0 1 1.627-.613 3.162 3.162 0 0 1 1.933.481 2.643 2.643 0 0 1 1.177 1.828c.062.393.044.794-.053 1.18a2.52 2.52 0 0 1-.575 1.064l.079.087a1.37 1.37 0 0 1 .852-.273c.435.002.856.16 1.184.447.325.279.583.627.757 1.018a4.37 4.37 0 0 1 .378 2.36 2.751 2.751 0 0 1-1.044 1.847 3.67 3.67 0 0 1-1.76.681 5.48 5.48 0 0 1-1.577-.056c-.395-.07-.785-.16-1.17-.273l-.73-.215-.189-.057c-.023.004-.046.004-.046.004Zm-3.492 3.655c.086.064.177.12.272.17.256.148.523.274.799.379.408.158.844.235 1.282.227a2.347 2.347 0 0 0 1.484-.58 1.8 1.8 0 0 0 .465-.7 2.4 2.4 0 0 0 .133-.756 3.369 3.369 0 0 0-.269-1.275 6.377 6.377 0 0 0-.378-.788 1.47 1.47 0 0 0-.171-.272c.035.1.078.198.129.291.087.19.219.455.348.799.156.396.236.819.235 1.245a1.9 1.9 0 0 1-.564 1.381 2.27 2.27 0 0 1-1.408.553 3.47 3.47 0 0 1-1.252-.194c-.7-.264-1.094-.507-1.105-.48Zm-1.222 1.483a.759.759 0 0 1-.291-.117.822.822 0 0 1-.318-.756.685.685 0 0 1 .265-.489.477.477 0 0 1 .586 0 .432.432 0 0 1 .137.296.339.339 0 0 1-.044.161.331.331 0 0 1-.119.119.545.545 0 0 1-.36.053.928.928 0 0 1-.378-.14 1.671 1.671 0 0 1-.708-1.325 3.115 3.115 0 0 1 .243-1.267c.082-.28.21-.543.378-.78a.353.353 0 0 1 .276-.125.162.162 0 0 0-.083 0 .376.376 0 0 0-.227.106 1.01 1.01 0 0 0-.223.318 6.166 6.166 0 0 0-.216.462c-.184.41-.279.855-.276 1.305.013.263.079.52.193.757.123.266.318.491.564.65a.85.85 0 0 0 .855.088.434.434 0 0 0 .215-.379.528.528 0 0 0-.174-.378.52.52 0 0 0-.378-.125.691.691 0 0 0-.348.125.759.759 0 0 0-.288.564.882.882 0 0 0 .379.802.585.585 0 0 0 .234.083c.076.004.106-.004.106-.007Z"/><path fill="#455A64" d="M180.451 52.748a.314.314 0 0 0 .106 0 .854.854 0 0 0 .295-.037 1.212 1.212 0 0 0 .757-.757 1.586 1.586 0 0 0-.424-1.533 2.33 2.33 0 0 0-2.297-.643l.072.08a1.848 1.848 0 0 0-.348-1.76 1.671 1.671 0 0 0-.647-.47 1.808 1.808 0 0 0-.682-.12 1.73 1.73 0 0 0-1.154.438c-.041.046-.064.069-.06.072.004.004.098-.083.295-.196a1.791 1.791 0 0 1 1.563-.103c.235.098.442.252.601.45a1.75 1.75 0 0 1 .318 1.647l-.038.11.11-.03a2.247 2.247 0 0 1 2.187.602 1.515 1.515 0 0 1 .424 1.43 1.178 1.178 0 0 1-.692.756 1.37 1.37 0 0 1-.386.065Zm.275-7.068a.462.462 0 0 0-.155-.06 1.286 1.286 0 0 0-.462-.027 1.513 1.513 0 0 0-.666.234 1.45 1.45 0 0 0-.575.685l.098-.019a1.198 1.198 0 0 0-.726-.378 1.71 1.71 0 0 0-1.136.265c-.268.18-.5.408-.684.673a4.183 4.183 0 0 0-.337.545.717.717 0 0 0-.099.216c.019 0 .178-.288.504-.711.189-.246.418-.458.677-.629a1.604 1.604 0 0 1 1.067-.238c.25.032.481.148.655.33l.064.071.034-.087c.104-.263.286-.487.522-.643.187-.126.399-.21.621-.246.199-.02.4-.014.598.019Z"/><path fill="#263238" d="m170.328 57.199-8.563 1.214-.379 2.706s-4.257 7.443-4.635 9.627c-.379 2.183-2.271 7.568-1.892 11.647.378 4.079-.863 19.484-.863 19.484h2.176l8.438-20.536 5.718-24.142Z"/><path fill="#407BFF" d="m176.239 156.302 2.149 7.776s-7.307 4.223-7.049 5.699l15.351-3.054-2.853-12.252-7.598 1.831Z"/><path fill="#fff" d="M182.939 162.296a.643.643 0 0 1 .598.609.614.614 0 0 1-.598.598.673.673 0 0 1-.628-.647.633.633 0 0 1 .688-.553m3.691 4.42-.288-1.233-14.72 3.462a1.076 1.076 0 0 0-.397.95l15.405-3.179Z" opacity=".6"/><path fill="#263238" d="M178.125 164.059c.022.072.401 0 .824.171.424.17.693.42.757.378.065-.042-.151-.446-.666-.621-.514-.174-.946.008-.915.072Zm-1.424 1.041c0 .075.351.125.677.378.325.254.48.572.556.549.076-.023 0-.45-.378-.757-.379-.307-.886-.242-.855-.17Zm-.466 2.138c.069 0 .084-.398-.204-.757-.287-.36-.673-.443-.689-.379-.015.065.25.235.481.534.231.299.337.602.412.602Zm1.6-5.006c.045.06.378-.121.791-.193.412-.072.787-.019.81-.091.022-.072-.356-.265-.859-.17-.504.094-.799.404-.742.454Z"/><path fill="#000" d="m176.666 157.842.382 1.385 7.466-1.851-.291-1.26-7.557 1.726Z" opacity=".3"/><path fill="#263238" d="M177.428 160.657c.264.008.526-.056.757-.185a3.572 3.572 0 0 0 1.116-.772c.072-.07.134-.149.185-.235a.327.327 0 0 0-.06-.404.414.414 0 0 0-.379-.091 1.142 1.142 0 0 0-.276.106 2.728 2.728 0 0 0-1.025.904c-.277.412-.333.719-.303.727.03.007.155-.258.45-.613.172-.207.371-.39.59-.545.128-.091.264-.171.405-.239.152-.079.288-.113.348-.053.061.061.027.034 0 .091a.818.818 0 0 1-.14.17 4.303 4.303 0 0 1-1.017.784 5.322 5.322 0 0 0-.651.355Z"/><path fill="#263238" d="M177.547 160.74c.093-.251.102-.526.026-.783a2.665 2.665 0 0 0-.302-.814 2.773 2.773 0 0 0-.307-.416.643.643 0 0 0-.575-.269.384.384 0 0 0-.269.288 1.07 1.07 0 0 0 0 .299 1.787 1.787 0 0 0 .636 1.226c.378.322.723.337.723.31 0-.026-.28-.125-.598-.45a1.797 1.797 0 0 1-.409-.658 1.567 1.567 0 0 1-.091-.443c0-.17 0-.314.08-.311a.538.538 0 0 1 .325.186c.107.118.203.244.288.378.142.226.253.471.329.727.114.416.102.726.144.73Z"/><path fill="#407BFF" d="m153.81 155.833-.95 7.999s-8.362 1.136-8.68 2.604l15.363 2.985 1.994-12.4-7.727-1.188Z"/><path fill="#fff" d="M157.745 163.916a.638.638 0 0 1 .325.791.614.614 0 0 1-.779.325.67.67 0 0 1-.337-.836.635.635 0 0 1 .848-.25m1.739 5.486.201-1.252-14.936-2.365a1.08 1.08 0 0 0-.73.73l15.465 2.887Z" opacity=".6"/><path fill="#263238" d="M152.619 163.726c0 .076.379.166.696.469.318.303.485.647.557.628.072-.019.03-.473-.379-.828-.408-.356-.878-.341-.874-.269Zm-1.726.417c-.031.071.28.249.484.609.204.359.231.707.307.719.075.011.189-.413-.076-.855-.265-.443-.704-.545-.715-.473Zm-1.22 1.797c.064.026.231-.333.098-.776-.132-.443-.458-.666-.499-.605-.042.06.143.31.246.677.102.367.079.685.155.704Zm3.365-4c.023.072.379.023.806.118.428.094.734.28.784.223.049-.057-.227-.379-.727-.485-.499-.106-.889.061-.863.144Z"/><path fill="#000" d="m153.625 157.418-.174 1.427 7.614 1.116.208-1.279-7.648-1.264Z" opacity=".3"/><path fill="#263238" d="M153.262 160.309c.242.111.511.152.775.117a3.521 3.521 0 0 0 1.329-.287.973.973 0 0 0 .265-.148.333.333 0 0 0 .094-.397.416.416 0 0 0-.303-.223 1.151 1.151 0 0 0-.299 0 2.657 2.657 0 0 0-.507.091 2.751 2.751 0 0 0-.787.355c-.408.276-.575.541-.552.56.023.019.242-.181.651-.397a3.09 3.09 0 0 1 1.226-.348c.17-.019.31 0 .34.079.031.08 0 .042-.03.087a1.097 1.097 0 0 1-.193.106c-.151.068-.303.121-.446.171a4.81 4.81 0 0 1-.795.17 5.98 5.98 0 0 0-.768.064Z"/><path fill="#263238" d="M153.344 160.427c.026 0 .219-.231.321-.716a2.471 2.471 0 0 0-.098-1.366.637.637 0 0 0-.154-.291.632.632 0 0 0-.278-.178.38.38 0 0 0-.378.167 1.124 1.124 0 0 0-.121.272 1.686 1.686 0 0 0-.083.522c-.001.297.07.589.208.852.238.446.541.586.549.56.007-.027-.209-.22-.379-.64a1.709 1.709 0 0 1-.049-1.199c.049-.163.132-.284.193-.258.06.027.185.156.231.296.055.146.097.296.125.45.046.262.057.529.03.794-.03.455-.155.735-.117.735Z"/><path fill="#263238" d="M165.414 132.118c0 .284-3.515 27.756-3.515 27.756l-10.217-1.937 4.105-28.354 9.627 2.535Zm12.441-2.936c.094.268 7.189 28.001 7.189 28.001l-9.709 2.237-8.325-29.837 10.845-.401Z"/><path fill="#407BFF" d="m168.705 58.076 1.998-.681 3.489 4.768.938 15.318-2.41 7.89s6.811 15.014 6.906 18.742c.094 3.727 3.163 38.426 3.163 38.426l-31.441 2.562 5.808-56.76s.757-13.918 1.646-16c.889-2.08 9.903-14.265 9.903-14.265Z"/><path fill="#263238" d="M171.403 107.409a.38.38 0 0 1-.121.06 1.903 1.903 0 0 1-.378.102 2.67 2.67 0 0 1-1.438-.208 3.834 3.834 0 0 1-1.623-1.411 10.385 10.385 0 0 1-1.113-2.388 15.3 15.3 0 0 1-.81-4.688 13.61 13.61 0 0 1 .065-1.442c.007-.177.035-.352.083-.522.014.175.014.35 0 .526 0 .34-.023.832 0 1.434.063 1.577.35 3.136.855 4.631a10.7 10.7 0 0 0 1.079 2.346 3.774 3.774 0 0 0 1.513 1.385 2.79 2.79 0 0 0 1.37.262c.337-.046.518-.106.518-.087Zm11.386 35.13h-.155l-.461.045-1.775.163-6.603.568-22.447 1.88h-.114v-.117c.25-2.467.511-5.021.78-7.64 1.112-10.773 2.123-20.524 2.853-27.589.378-3.523.674-6.38.885-8.359.11-.98.193-1.744.25-2.27.031-.254.053-.45.072-.59a2.25 2.25 0 0 1 .03-.201v.2c0 .133-.026.34-.049.594-.049.526-.121 1.294-.215 2.271-.193 1.983-.477 4.84-.825 8.366l-2.793 27.593-.783 7.64-.106-.106 22.447-1.793 6.606-.511 1.779-.129.458-.026c.056 0 .111.004.166.011ZM172.492 59.84s-.027.022-.083.06l-.25.155-.969.59c-.42.254-.934.568-1.513.946-.296.193-.61.398-.916.636a.964.964 0 0 0-.186.182c0 .08-.022.2-.037.299a25.735 25.735 0 0 1-.663 3.47 13.868 13.868 0 0 1-1.176 3.106c-.572 1.06-1.594 1.82-2.536 2.65a6.433 6.433 0 0 0-1.271 1.407 2.759 2.759 0 0 0-.416 1.839c.121.647.304 1.28.548 1.892.218.616.346 1.261.379 1.915a9.117 9.117 0 0 1-.644 3.61 17.082 17.082 0 0 1-1.483 2.97c-.541.885-1.075 1.691-1.559 2.426-.972 1.468-1.748 2.648-2.251 3.511-.25.424-.439.757-.564.98l-.144.257a.506.506 0 0 1-.057.088s0-.035.038-.095l.125-.269c.117-.23.295-.571.537-.999.481-.862 1.241-2.07 2.199-3.55.477-.756 1.006-1.547 1.536-2.432a17.048 17.048 0 0 0 1.453-2.948 9.028 9.028 0 0 0 .621-3.538 6.575 6.575 0 0 0-.379-1.866 10.076 10.076 0 0 1-.556-1.926 2.918 2.918 0 0 1 .443-1.964 6.512 6.512 0 0 1 1.313-1.449c.953-.832 1.949-1.574 2.501-2.592.51-.97.905-1.996 1.177-3.057a26.1 26.1 0 0 0 .692-3.444c0-.11.019-.197.042-.314a.755.755 0 0 1 .231-.25c.321-.242.639-.443.934-.628.595-.378 1.117-.677 1.544-.923l.988-.556.261-.14a.642.642 0 0 1 .091-.05Zm-.465 25.148a3.128 3.128 0 0 1-.961-.106 7.254 7.254 0 0 1-2.172-.878 7.378 7.378 0 0 1-1.775-1.513 2.922 2.922 0 0 1-.533-.81 10.646 10.646 0 0 0 2.41 2.168c.948.53 1.97.913 3.031 1.14Zm.616.662c-.235.098-.484.16-.738.185a10.707 10.707 0 0 1-3.655-.026 2.385 2.385 0 0 1-.734-.2c0-.057 1.135.166 2.561.173 1.427.008 2.555-.193 2.566-.132Z"/><path fill="#263238" d="M173.03 60.986s-2.6.038-3.5 1.574c-.901 1.536-2.71 12.684 2.705 22.326.25.443.485.469.485.469l.794-2.604s-1.472-10.754-1.691-11.938c-.22-1.184-.575-8.136.462-8.268.257-.031.516-.048.775-.05 1.25-.01 2.464.42 3.429 1.215l.756.602a5.853 5.853 0 0 0-4.215-3.326Z"/><path fill="#000" d="M171.254 65.773c-2.804 5.18-3.027 11.416-2.017 17.221a4.19 4.19 0 0 0 .708 1.975c.439.553 1.26.87 1.892.519.473-.265.867-.144 1.044-.655.572-1.608 1.068-3.686 1.639-5.298-1.067-4.627-2.218-9.123-3.266-13.762Zm-5.198 32.663a18.608 18.608 0 0 0 1.415 11.235 6.632 6.632 0 0 0 1.438 2.146 2.975 2.975 0 0 0 2.369.847c1.078-.151 1.922-1.074 2.293-2.1.265-.756.295-1.653-.242-2.232-.651-.704-1.767-.587-2.713-.757-1.73-.318-3.081-1.771-3.758-3.406-.677-1.634-.802-3.405-.916-5.172" opacity=".3"/><path fill="#407BFF" d="M184.424 81.37c-.091-2.345-4.564-11.62-4.564-11.62s-2.069-4.609-2.558-5.54c-1.063-2.024-4.03-2.24-5.1-1.623l.828 11.443 2.456 8.325-4.783 9.024 5.956 5.866c7.943-.98 7.852-13.528 7.765-15.874Z"/><path fill="#263238" d="M182.479 82.642a2.912 2.912 0 0 1-1.086-.155c-.662-.167-1.513-.553-2.509-.783a4.157 4.157 0 0 0-1.407-.106 2.823 2.823 0 0 0-1.086.352 2.99 2.99 0 0 0-.784.718.706.706 0 0 1 .125-.268c.153-.228.352-.421.583-.568.344-.219.731-.36 1.135-.416a4.103 4.103 0 0 1 1.472.095c1.022.242 1.866.647 2.505.84.64.193 1.056.26 1.052.291Zm-2.785-3.549c-.285.08-.578.132-.874.155a5.775 5.775 0 0 0-1.998.617 2.68 2.68 0 0 0-1.256 1.578 3.046 3.046 0 0 0-.049.862s-.05-.075-.087-.23a1.641 1.641 0 0 1 0-.663 2.642 2.642 0 0 1 1.29-1.721 5.097 5.097 0 0 1 2.077-.58c.297-.047.599-.053.897-.018Zm-2.286 18.262a2.183 2.183 0 0 1-.435-.17c-.39-.174-.769-.37-1.136-.587a13.74 13.74 0 0 1-1.559-1.067 15.679 15.679 0 0 1-1.699-1.57 16.143 16.143 0 0 1-1.426-1.82 14.552 14.552 0 0 1-.935-1.643 11.052 11.052 0 0 1-.492-1.173 2.17 2.17 0 0 1-.132-.447c.034 0 .257.61.757 1.556.288.553.609 1.089.961 1.604.434.626.908 1.224 1.419 1.79.52.558 1.078 1.08 1.668 1.563.483.392.988.754 1.514 1.086.904.567 1.51.844 1.495.878Zm-1.923-14.989a8.237 8.237 0 0 1-.469-1.215 59.275 59.275 0 0 1-.95-2.99 58.961 58.961 0 0 1-.795-3.026 8.053 8.053 0 0 1-.242-1.28c.156.406.283.822.379 1.245.212.757.511 1.84.851 3.028.341 1.188.647 2.18.893 3 .14.404.251.818.333 1.238Z"/><path fill="#263238" d="M170.703 91.39c-.049-.026.984-2.065 2.304-4.56 1.321-2.493 2.43-4.49 2.479-4.468.049.023-.984 2.07-2.305 4.56-1.32 2.49-2.429 4.495-2.478 4.469Zm-3.183 46.71c-.053 0 .235-3.651.647-8.143.412-4.491.787-8.128.84-8.128.053 0-.235 3.652-.643 8.143-.409 4.492-.787 8.128-.844 8.128Zm3.531 1.469a33.186 33.186 0 0 1-.817-3.523 33.29 33.29 0 0 1-.629-3.561c.338 1.159.612 2.335.822 3.523.271 1.175.48 2.364.624 3.561Z"/><path fill="#FAFAFA" d="M168.078 130.154c0 .057-3.323-.03-7.417-.189-4.094-.159-7.413-.329-7.409-.378.004-.049 3.322.03 7.417.185 4.094.155 7.409.31 7.409.382Zm13.726 1.574c0 .057-3.057.023-6.811-.071-3.754-.095-6.811-.216-6.811-.273 0-.057 3.057-.019 6.83.076 3.772.094 6.796.208 6.792.268Zm-13.428-5.566c0 .053-3.341-.057-7.454-.246-4.114-.189-7.451-.378-7.447-.447.003-.068 3.337.057 7.454.25 4.117.193 7.466.39 7.447.443Zm13.115 1.752c0 .057-2.936 0-6.55-.11-3.614-.109-6.55-.253-6.546-.306.003-.053 2.932 0 6.55.109 3.617.11 6.55.254 6.546.307Z"/><path fill="#407BFF" d="M39.06 160.805c.276-1.079-.428-2.157-1.218-2.937-.791-.779-1.733-1.479-2.146-2.508-.666-1.673.23-3.834-.908-5.23-.666-.817-1.866-1.093-2.46-1.968a4.49 4.49 0 0 1-.533-1.566 15.914 15.914 0 0 0-3.955-7.402 13.773 13.773 0 0 0 1.552 7.133c.458.878 1.025 1.73 1.177 2.71.25 1.589-.64 3.224-.25 4.783.447 1.782 2.452 2.978 2.547 4.813.08 1.551-1.272 2.914-1.174 4.465.083.66.32 1.292.693 1.843 1.2 1.994 2.963 3.368 5.634 3.322l3.274.117-2.233-7.575Z"/><path fill="#000" d="M39.06 160.805c.276-1.079-.428-2.157-1.218-2.937-.791-.779-1.733-1.479-2.146-2.508-.666-1.673.23-3.834-.908-5.23-.666-.817-1.866-1.093-2.46-1.968a4.49 4.49 0 0 1-.533-1.566 15.914 15.914 0 0 0-3.955-7.402 13.773 13.773 0 0 0 1.552 7.133c.458.878 1.025 1.73 1.177 2.71.25 1.589-.64 3.224-.25 4.783.447 1.782 2.452 2.978 2.547 4.813.08 1.551-1.272 2.914-1.174 4.465.083.66.32 1.292.693 1.843 1.2 1.994 2.963 3.368 5.634 3.322l3.274.117-2.233-7.575Z" opacity=".3"/><path fill="#263238" d="M41.956 168.453c.298.051.603.051.901 0a5.34 5.34 0 0 0 1.063-.269 4.39 4.39 0 0 0 1.313-.719c.239-.19.425-.437.542-.719a3.46 3.46 0 0 0 .155-.98c.007-.353.032-.705.075-1.055.064-.374.2-.731.401-1.052.379-.681 1.026-1.321 1.234-2.24.208-.92.064-1.892-.09-2.873-.156-.98-.3-2.05.079-3.072.378-1.022 1.067-1.949 1.426-3.103.36-1.154.19-2.418.265-3.655a4.832 4.832 0 0 1 .428-1.817c.265-.579.632-1.135.92-1.737.578-1.233.68-2.63.84-3.999.079-.689.158-1.389.234-2.093.054-.709.18-1.41.378-2.092.22-.69.48-1.366.78-2.025.155-.342.282-.696.378-1.059.056-.377.092-.756.106-1.136.034-.758.005-1.517-.087-2.27-.09-.757-.227-1.514-.306-2.27v-.129l-.02-.151-.132.068a5.087 5.087 0 0 0-1.763 1.487 7.959 7.959 0 0 0-1.082 1.994c-.545 1.408-.757 2.88-1.018 4.287a11.691 11.691 0 0 1-1.343 3.958c-.36.583-.795 1.113-1.174 1.684a4.66 4.66 0 0 0-.813 1.866c-.193 1.385.568 2.599.409 3.825a4.221 4.221 0 0 1-.594 1.699c-.3.523-.648 1.007-.98 1.495a9.77 9.77 0 0 0-.879 1.514 4.773 4.773 0 0 0-.4 1.642c-.08 1.101.075 2.149 0 3.137a7.251 7.251 0 0 1-.833 2.698c-.379.806-.836 1.536-1.203 2.24-.183.34-.349.688-.496 1.044-.133.333-.23.68-.288 1.033a6.5 6.5 0 0 0-.026 1.87 4.71 4.71 0 0 0 .938 2.384c.08.102.169.197.265.284.065.069.137.131.216.185l.185.129a4.095 4.095 0 0 1-.632-.625 4.729 4.729 0 0 1-.889-2.369 6.32 6.32 0 0 1 .042-1.839 5.08 5.08 0 0 1 .287-1.01c.14-.34.314-.681.5-1.029.378-.7.817-1.427 1.222-2.237.456-.848.74-1.777.836-2.735.087-1.011-.068-2.063 0-3.141.032-.547.16-1.084.379-1.586a9.625 9.625 0 0 1 .866-1.479c.333-.485.685-.973.992-1.514a4.38 4.38 0 0 0 .624-1.767c.159-1.305-.598-2.531-.401-3.818a4.408 4.408 0 0 1 .783-1.782c.379-.56.81-1.09 1.18-1.688a11.898 11.898 0 0 0 1.405-4.011c.28-1.415.476-2.872 1.014-4.249a7.855 7.855 0 0 1 1.052-1.945 4.852 4.852 0 0 1 1.687-1.423l-.147-.084v.133c.08.757.215 1.514.306 2.27.091.741.12 1.488.087 2.233-.022.378-.045.757-.102 1.093-.098.35-.224.69-.378 1.018a19.014 19.014 0 0 0-.791 2.051 10.38 10.38 0 0 0-.378 2.127c-.079.704-.156 1.401-.231 2.093-.16 1.373-.261 2.751-.821 3.939-.277.594-.644 1.135-.916 1.74a5.093 5.093 0 0 0-.44 1.892c-.067 1.264.096 2.498-.245 3.618-.34 1.12-1.056 2.043-1.415 3.099-.36 1.056-.227 2.172-.068 3.148.158.977.314 1.945.106 2.816-.209.87-.814 1.513-1.207 2.213a3.001 3.001 0 0 0-.405 1.094 9.802 9.802 0 0 0-.072 1.071 3.31 3.31 0 0 1-.137.953 1.833 1.833 0 0 1-.51.689 4.604 4.604 0 0 1-1.28.723c-.34.128-.692.223-1.051.284a4.09 4.09 0 0 1-.663.064l-.193-.038Z"/><path fill="#263238" d="M52.298 129.894a.344.344 0 0 0-.03.098c0 .079-.045.178-.072.295-.064.257-.144.647-.265 1.135-.12.488-.427 1.033-.68 1.707a24.315 24.315 0 0 0-.758 2.323c-.25.874-.473 1.843-.704 2.88a12.097 12.097 0 0 1-1.048 3.197c-.268.534-.571 1.071-.81 1.658a7.823 7.823 0 0 0-.472 1.892 37.594 37.594 0 0 1-.704 3.958c-.655 2.683-1.283 5.237-1.85 7.568l-1.552 6.168c-.431 1.744-.78 3.163-1.03 4.162-.113.481-.204.859-.268 1.136-.026.121-.045.215-.064.295a.301.301 0 0 0 0 .102.42.42 0 0 0 0-.095l.083-.287.306-1.136c.265-.995.636-2.406 1.094-4.143.458-1.737.999-3.856 1.6-6.164.602-2.308 1.204-4.882 1.866-7.568.307-1.312.542-2.64.704-3.977a7.648 7.648 0 0 1 .454-1.832c.23-.571.53-1.108.799-1.646a12.26 12.26 0 0 0 1.044-3.246c.223-1.041.435-2.006.673-2.876.239-.871.492-1.65.757-2.32.265-.67.53-1.23.651-1.733.121-.503.174-.882.227-1.135 0-.121.038-.22.05-.299a.376.376 0 0 0 0-.117Z"/><path fill="#407BFF" d="M42.533 168.464c2.138-1.271 2.751-5.127 1.858-7.451-.893-2.323-2.452-4.442-2.694-6.917-.185-1.892.44-3.856 0-5.718-.598-2.508-3.05-4.453-3.027-7.03 0-1.45.84-2.812.757-4.257-.08-1.775-1.442-3.183-2.27-4.745-1.291-2.392-1.374-5.219-1.817-7.901-.443-2.683-1.46-5.555-3.84-6.872-.349 2.27-.95 3.837-.758 6.921.069 1.108 1.355 3.228 1.514 5.657.106 1.449.178 2.902.265 4.355.087 1.453.178 2.853.685 4.163.378 1.014 1.014 1.933 1.301 2.978.542 1.967-.17 4.102.27 6.096.377 1.687 1.54 3.141 1.778 4.855.333 2.406-1.223 4.919-.428 7.189.378 1.136 1.336 2.055 1.6 3.232.205.912 0 1.892.167 2.792.303 1.48 3.118 2.627 4.624 2.536"/><path fill="#263238" d="M32.094 119.832a.548.548 0 0 0 0 .128l.045.379c.05.329.106.813.216 1.438.11.624.443 1.332.704 2.187.26.855.54 1.827.783 2.925.242 1.097.446 2.312.662 3.617.17 1.408.539 2.785 1.094 4.091.302.685.64 1.37.889 2.096.248.748.4 1.525.45 2.312.121 1.67.33 3.332.628 4.98l1.847 9.509c.598 2.914 1.135 5.54 1.593 7.75.458 2.21.829 3.973 1.09 5.218.129.606.234 1.079.306 1.419.034.151.065.273.084.378a.692.692 0 0 0 .037.125.76.76 0 0 0 0-.128c0-.095-.037-.22-.064-.379l-.269-1.426c-.246-1.249-.594-3.028-1.025-5.234-.431-2.206-.965-4.839-1.548-7.757-.583-2.917-1.18-6.134-1.827-9.509a46.786 46.786 0 0 1-.629-4.961 9.54 9.54 0 0 0-.469-2.365c-.257-.757-.598-1.43-.9-2.108a15.215 15.215 0 0 1-1.101-4.041c-.22-1.305-.436-2.524-.69-3.621a32.033 32.033 0 0 0-.817-2.933c-.283-.848-.605-1.555-.734-2.168-.128-.613-.189-1.101-.253-1.427l-.068-.378a.477.477 0 0 0-.034-.117Z"/></g><defs><clipPath id="a"><path fill="#fff" d="M.5.906h208v172.222H.5z"/></clipPath></defs></svg>